<?xml version="1.0" encoding="utf-8"?>
<!-- Generator: Adobe Illustrator 22.1.0, SVG Export Plug-In . SVG Version: 6.00 Build 0)  -->
<svg version="1.1" id="レイヤー_1" xmlns="http://www.w3.org/2000/svg" xmlns:xlink="http://www.w3.org/1999/xlink" x="0px"
	 y="0px" viewBox="0 0 68 68" style="enable-background:new 0 0 68 68;" xml:space="preserve">
<style type="text/css">
	.st0{fill:#FFFFFF;}
	.st1{fill:#E60039;}
</style>
<circle class="st0" cx="34.1" cy="34.1" r="33.3"/>
<g>
	<path class="st1" d="M27.3,24.7c-1.9,0-3.9,0.3-5.8,0.9c-0.8,0.3-1.6,0.6-2.4,1l3.4,3.7l-5,1c0.4,0.8,0.8,1.5,1.4,2.2
		c3.1,4.3,7.8,6.9,12.7,7.6c2.6-2.3,5.9-4,9.5-4.7c-2.4-2.6-4.1-5.9-4.9-9.4C33.5,25.5,30.5,24.7,27.3,24.7"/>
	<path class="st1" d="M33.1,61.4c5.1-1.7,9-5.3,11.1-9.7c-1.4-3.3-2-6.9-1.6-10.5C40,42.4,37.1,43,34.2,43c-0.7,0-1.3,0-1.9-0.1
		c-3.6,3.4-5.8,8.2-5.8,13.6c0,0.9,0.1,1.7,0.2,2.6l4.6-2.1l-0.6,5C31.5,61.8,32.3,61.6,33.1,61.4"/>
	<path class="st1" d="M56.2,43c-3,0-5.9-0.6-8.5-1.9c0.4,3.6-0.2,7.2-1.6,10.5c1.8,3.8,5,7.1,9.1,8.9c3.2-2.6,5.9-5.7,8-9.2
		c-0.9-3.2-2.7-6.1-5.1-8.4C57.5,43,56.8,43,56.2,43"/>
	<path class="st1" d="M52.6,25.9c0.9-4.9-0.1-10.1-3.3-14.4c-0.5-0.7-1.1-1.4-1.7-2l-2.5,4.4l-2.5-4.4c-0.6,0.6-1.2,1.3-1.7,2
		c-3.1,4.3-4.1,9.5-3.3,14.4c3.1,1.8,5.6,4.4,7.4,7.6l0,0l0,0C47,30.3,49.5,27.7,52.6,25.9"/>
	<path class="st1" d="M43.4,33.8c-1.3-2.2-3-4-5-5.5c0.8,2.4,2,4.6,3.7,6.5C42.4,34.4,42.9,34.1,43.4,33.8"/>
	<path class="st1" d="M44.3,41.9c-0.2,2.5,0.1,5,0.8,7.4c0.8-2.3,1.1-4.8,0.8-7.4C45.6,42,45.4,42,45.1,42
		C44.9,42,44.6,41.9,44.3,41.9"/>
	<path class="st1" d="M60.2,42.6c1.8,1.9,3.2,4.2,4.1,6.6c1.5-3,2.6-6.2,3.1-9.6C65.3,41.1,62.8,42.1,60.2,42.6"/>
	<path class="st1" d="M45.2,53.5c-2.4,4.3-6.4,7.8-11.5,9.5c-0.9,0.3-1.8,0.5-2.7,0.7l-2.3,0.4l0.3-2.3l0.2-2l-1.8,0.8l-2.1,1
		L25,59.3c-0.1-1-0.2-1.9-0.2-2.8c0-5.4,2.1-10.2,5.4-13.9c-5-1-9.5-3.9-12.6-8c-0.5-0.7-1-1.5-1.5-2.4l-1.1-2l2.3-0.5l2-0.4
		l-1.4-1.5l-1.6-1.7l2.1-1c0.9-0.4,1.8-0.8,2.6-1.1c2.1-0.7,4.2-1,6.3-1c3,0,5.9,0.7,8.5,1.9c-0.6-5.1,0.7-10.2,3.8-14.4
		c0.5-0.7,1.1-1.4,1.8-2.2L43,6.6l1.1,2l1,1.7l1-1.7l1.1-2l1.6,1.7c0.7,0.7,1.3,1.4,1.8,2.2c3,4.2,4.4,9.3,3.8,14.4
		C57.1,23.7,60,23,63,23c1,0,2.1,0.1,3.1,0.2C61.6,9.9,49,0.3,34.1,0.3C15.4,0.3,0.3,15.4,0.3,34.1s15.1,33.8,33.8,33.8
		c7.3,0,14-2.3,19.5-6.2C50.1,59.9,47.1,57.1,45.2,53.5"/>
	<path class="st1" d="M34.2,41.3c2.5,0,5-0.5,7.3-1.5c-0.3-0.5-0.5-1-0.5-1.6C38.5,38.8,36.2,39.8,34.2,41.3"/>
	<path class="st1" d="M46.9,33.8c0.5,0.2,1,0.6,1.4,1c1.7-1.9,2.9-4.1,3.7-6.5C50,29.8,48.2,31.7,46.9,33.8"/>
	<path class="st1" d="M56.2,41.3c-2-1.5-4.3-2.5-6.8-3.1c-0.1,0.6-0.2,1.1-0.5,1.6C51.2,40.8,53.7,41.3,56.2,41.3"/>
	<path class="st1" d="M54.1,27c-0.8,3.5-2.5,6.8-4.9,9.4c3.6,0.7,6.8,2.4,9.5,4.7c3.3-0.4,6.4-1.7,9.1-3.8c0.1-1,0.2-2.1,0.2-3.2
		c0-3.1-0.4-6.1-1.2-9c-1.2-0.2-2.5-0.4-3.7-0.4C59.9,24.7,56.8,25.5,54.1,27"/>
</g>
</svg>
