<?xml version="1.0" encoding="utf-8"?>
<!-- Generator: Adobe Illustrator 16.0.0, SVG Export Plug-In . SVG Version: 6.00 Build 0)  -->
<!DOCTYPE svg PUBLIC "-//W3C//DTD SVG 1.1//EN" "http://www.w3.org/Graphics/SVG/1.1/DTD/svg11.dtd">
<svg version="1.1" id="レイヤー_1" xmlns="http://www.w3.org/2000/svg" xmlns:xlink="http://www.w3.org/1999/xlink" x="0px"
	 y="0px" width="68.03px" height="68.03px" viewBox="0 0 68.03 68.03" enable-background="new 0 0 68.03 68.03"
	 xml:space="preserve">
<circle fill="#FFFFFF" cx="34.113" cy="34.112" r="33.798"/>
<g>
	<path fill="#E60039" d="M27.326,24.73c-1.922,0-3.876,0.297-5.803,0.924c-0.833,0.271-1.626,0.604-2.391,0.978l3.427,3.725
		l-4.962,0.998c0.4,0.752,0.845,1.488,1.36,2.197c3.14,4.322,7.783,6.904,12.691,7.563c2.643-2.332,5.877-4.006,9.459-4.729
		c-2.426-2.629-4.092-5.85-4.879-9.389C33.523,25.539,30.472,24.73,27.326,24.73"/>
	<path fill="#E60039" d="M33.122,61.351c5.081-1.65,8.961-5.27,11.104-9.732c-1.441-3.33-1.986-6.918-1.568-10.471
		c-2.654,1.219-5.532,1.865-8.502,1.865c-0.651,0-1.297-0.039-1.939-0.1c-3.575,3.416-5.813,8.221-5.813,13.557
		c0,0.875,0.073,1.734,0.191,2.576l4.601-2.107l-0.583,5.027C31.451,61.817,32.289,61.622,33.122,61.351"/>
	<path fill="#E60039" d="M56.187,43.013c-2.974,0-5.854-0.648-8.511-1.869c0.423,3.633-0.166,7.227-1.565,10.463
		c1.845,3.846,4.981,7.057,9.06,8.932c3.201-2.555,5.929-5.676,8.027-9.217c-0.93-3.244-2.695-6.139-5.072-8.408
		C57.482,42.974,56.838,43.013,56.187,43.013"/>
	<path fill="#E60039" d="M52.594,25.856c0.877-4.861-0.139-10.056-3.271-14.368c-0.515-0.708-1.078-1.359-1.669-1.972l-2.482,4.411
		l-2.483-4.411c-0.591,0.613-1.154,1.264-1.669,1.972c-3.133,4.312-4.148,9.507-3.27,14.368c3.065,1.811,5.633,4.414,7.415,7.592
		c0.003,0,0.005-0.002,0.007-0.002s0.004,0.002,0.004,0.002C46.961,30.271,49.527,27.667,52.594,25.856"/>
	<path fill="#E60039" d="M43.404,33.841c-1.311-2.186-3.027-4.041-5.023-5.496c0.767,2.351,1.994,4.56,3.67,6.482
		C42.432,34.415,42.887,34.078,43.404,33.841"/>
	<path fill="#E60039" d="M44.336,41.876c-0.222,2.529,0.08,5.025,0.836,7.367c0.754-2.342,1.057-4.838,0.834-7.367
		c-0.271,0.053-0.549,0.084-0.836,0.084C44.885,41.96,44.606,41.929,44.336,41.876"/>
	<path fill="#E60039" d="M60.215,42.604c1.768,1.916,3.168,4.172,4.111,6.648c1.5-2.984,2.57-6.223,3.129-9.633
		C65.26,41.06,62.805,42.083,60.215,42.604"/>
	<path fill="#E60039" d="M45.166,53.513c-2.432,4.34-6.417,7.824-11.511,9.479c-0.853,0.277-1.75,0.498-2.742,0.672l-2.281,0.404
		l0.267-2.301l0.231-1.984l-1.817,0.832l-2.105,0.965l-0.321-2.293c-0.14-0.998-0.208-1.92-0.208-2.816
		c0-5.352,2.078-10.213,5.448-13.865c-5-1.008-9.523-3.852-12.565-8.039c-0.528-0.727-1.014-1.512-1.487-2.4l-1.089-2.044
		l2.271-0.457l1.958-0.394L17.863,27.8l-1.569-1.705l2.082-1.014c0.906-0.441,1.761-0.79,2.614-1.068
		c2.059-0.668,4.191-1.007,6.336-1.007c3.027,0,5.923,0.671,8.544,1.873c-0.599-5.122,0.705-10.207,3.754-14.404
		c0.526-0.726,1.124-1.431,1.823-2.155l1.607-1.667l1.137,2.018l0.979,1.741l0.979-1.741l1.138-2.018l1.606,1.667
		c0.7,0.724,1.297,1.429,1.823,2.155c3.05,4.197,4.353,9.282,3.755,14.404c2.62-1.202,5.516-1.873,8.543-1.873
		c1.039,0,2.072,0.083,3.098,0.24C61.587,9.913,48.975,0.315,34.112,0.315c-18.666,0-33.798,15.132-33.798,33.797
		c0,18.666,15.132,33.797,33.798,33.797c7.272,0,14.001-2.305,19.515-6.211C50.075,59.866,47.146,57.052,45.166,53.513"/>
	<path fill="#E60039" d="M34.17,41.288c2.474-0.002,4.96-0.5,7.311-1.5c-0.272-0.482-0.45-1.02-0.517-1.596
		C38.471,38.765,36.174,39.833,34.17,41.288"/>
	<path fill="#E60039" d="M46.938,33.841c0.518,0.237,0.973,0.574,1.354,0.986c1.676-1.923,2.904-4.133,3.67-6.482
		C49.965,29.798,48.248,31.654,46.938,33.841"/>
	<path fill="#E60039" d="M56.172,41.288c-2.004-1.455-4.301-2.523-6.793-3.094c-0.067,0.574-0.246,1.109-0.518,1.592
		C51.211,40.788,53.697,41.286,56.172,41.288"/>
	<path fill="#E60039" d="M54.114,26.997c-0.789,3.539-2.455,6.76-4.879,9.389c3.582,0.723,6.815,2.396,9.459,4.729
		c3.263-0.438,6.397-1.744,9.062-3.828c0.098-1.045,0.152-2.104,0.152-3.174c0-3.118-0.43-6.135-1.221-9.002
		c-1.227-0.246-2.455-0.38-3.672-0.38C59.87,24.73,56.819,25.539,54.114,26.997"/>
</g>
</svg>
